<?xml version="1.0" encoding="iso-8859-1"?>
<!-- Uploaded to: SVG Repo, www.svgrepo.com, Generator: SVG Repo Mixer Tools -->
<svg height="800px" width="800px" version="1.1" id="Layer_1" xmlns="http://www.w3.org/2000/svg" xmlns:xlink="http://www.w3.org/1999/xlink" 
	 viewBox="0 0 512 512" xml:space="preserve">
<g>
	<path style="fill:#8AACAD;" d="M479.966,181.693H32.032c-13.226,0-23.948,10.722-23.948,23.949v92.297
		c0,13.227,10.722,23.949,23.948,23.949h447.935c13.226,0,23.95-10.722,23.95-23.949v-92.298
		C503.916,192.415,493.192,181.693,479.966,181.693z"/>
	<circle style="fill:#8AACAD;" cx="103.37" cy="251.785" r="38.082"/>
</g>
<g>
	<path style="fill:#547475;" d="M479.966,41.499H32.032c-13.226,0-23.948,10.722-23.948,23.949v92.297
		c0,13.226,10.722,23.949,23.948,23.949h447.935c13.226,0,23.95-10.722,23.95-23.949V65.448
		C503.916,52.221,493.192,41.499,479.966,41.499z"/>
	<path style="fill:#547475;" d="M198.713,462.081h281.253c13.226,0,23.95-10.722,23.95-23.949v-92.297
		c0-13.227-10.724-23.949-23.95-23.949H32.032c-13.226,0-23.948,10.722-23.948,23.949v92.297c0,13.227,10.722,23.949,23.948,23.949
		h140.276"/>
</g>
<g>
	<circle style="fill:#8AACAD;" cx="103.37" cy="111.594" r="38.082"/>
	<circle style="fill:#8AACAD;" cx="103.37" cy="391.987" r="38.082"/>
</g>
<g>
	<circle style="fill:#53CAF9;" cx="103.381" cy="111.594" r="14.732"/>
	<circle style="fill:#53CAF9;" cx="103.381" cy="251.785" r="14.732"/>
	<circle style="fill:#53CAF9;" cx="103.381" cy="391.987" r="14.732"/>
</g>
<polyline style="fill:#384949;" points="328.055,8.084 114.796,8.084 73.836,30.361 73.836,41.499 439.242,41.499 439.242,30.361 
	398.282,8.084 355.541,8.084 "/>
<g style="opacity:0.2;">
	<polygon style="fill:#231F20;" points="149.455,8.084 114.796,8.084 73.836,30.361 73.836,41.499 105.095,41.499 105.095,35.751 
		146.055,13.474 149.455,13.474 	"/>
</g>
<g>
	<path style="fill:#384949;" d="M55.094,462.081v28.901c0,7.143,5.792,12.935,12.935,12.935h50.303
		c7.145,0,12.935-5.792,12.935-12.935v-28.902H55.094V462.081z"/>
	<path style="fill:#384949;" d="M381.809,462.081v28.901c0,7.143,5.789,12.935,12.935,12.935h50.303
		c7.143,0,12.935-5.792,12.935-12.935v-28.902h-76.173V462.081z"/>
</g>
<g style="opacity:0.2;">
	<path style="fill:#231F20;" d="M80.605,490.981v-28.902H55.094v28.902c0,7.143,5.792,12.935,12.935,12.935H93.54
		C86.395,503.916,80.605,498.124,80.605,490.981z"/>
</g>
<g style="opacity:0.2;">
	<path style="fill:#231F20;" d="M407.318,490.981v-28.902h-25.509v28.902c0,7.143,5.789,12.935,12.935,12.935h25.509
		C413.109,503.916,407.318,498.124,407.318,490.981z"/>
</g>
<g>
	<path style="fill:#231F20;" d="M512,157.745V65.448c0-17.662-14.37-32.033-32.034-32.033h-32.64v-3.054
		c0-2.962-1.62-5.687-4.222-7.101l-40.96-22.277C400.958,0.337,399.632,0,398.282,0h-42.741c-4.466,0-8.084,3.62-8.084,8.084
		s3.618,8.084,8.084,8.084h40.685l31.711,17.246H85.141l31.711-17.246h211.203c4.466,0,8.084-3.62,8.084-8.084S332.52,0,328.054,0
		H114.796c-1.35,0-2.676,0.337-3.862,0.982l-40.96,22.277c-2.602,1.415-4.222,4.14-4.222,7.102v3.054h-33.72
		C14.369,33.415,0,47.785,0,65.448v92.297c0,9.519,4.178,18.076,10.791,23.949C4.178,187.564,0,196.122,0,205.641v92.297
		c0,9.519,4.178,18.076,10.791,23.949C4.178,327.759,0,336.316,0,345.835v92.297c0,17.662,14.369,32.033,32.032,32.033H47.01v20.816
		c0,11.59,9.429,21.019,21.019,21.019h50.303c11.59,0,21.019-9.429,21.019-21.019v-20.817h32.956c4.466,0,8.084-3.62,8.084-8.084
		c0-4.465-3.618-8.084-8.084-8.084h-41.04H55.094H32.032c-8.747,0-15.863-7.117-15.863-15.864v-92.297
		c0-8.747,7.116-15.864,15.863-15.864h447.934c8.748,0,15.866,7.117,15.866,15.864v92.297c0,8.747-7.117,15.864-15.866,15.864
		h-21.985h-76.173H198.714c-4.466,0-8.084,3.62-8.084,8.084c0,4.465,3.618,8.084,8.084,8.084h175.01v20.817
		c0,11.59,9.429,21.019,21.019,21.019h50.303c11.59,0,21.019-9.429,21.019-21.019v-20.817h13.901
		c17.663,0,32.034-14.37,32.034-32.033v-92.297c0-9.519-4.178-18.076-10.792-23.949c6.613-5.872,10.792-14.43,10.792-23.949v-92.296
		c0-9.519-4.178-18.076-10.792-23.949C507.822,175.821,512,167.263,512,157.745z M123.183,470.165v20.816
		c0,2.674-2.176,4.851-4.851,4.851H68.029c-2.674,0-4.851-2.176-4.851-4.851v-20.817h60.004V470.165z M449.897,490.981
		c0,2.674-2.176,4.851-4.851,4.851h-50.303c-2.674,0-4.851-2.176-4.851-4.851v-20.817h60.004V490.981z M495.832,205.641v92.297
		c0,8.747-7.117,15.864-15.866,15.864H32.032c-8.747,0-15.863-7.117-15.863-15.864v-92.297c0-8.747,7.116-15.864,15.863-15.864
		h447.934C488.714,189.777,495.832,196.894,495.832,205.641z M32.032,173.609c-8.747,0-15.863-7.117-15.863-15.864V65.448
		c0-8.747,7.116-15.864,15.863-15.864h41.804h365.406h40.724c8.748,0,15.866,7.117,15.866,15.864v92.297
		c0,8.747-7.117,15.864-15.866,15.864H32.032z"/>
	<path style="fill:#231F20;" d="M103.374,88.78c-12.58,0-22.815,10.236-22.815,22.816s10.235,22.816,22.815,22.816
		c12.581,0,22.817-10.236,22.817-22.816S115.956,88.78,103.374,88.78z M103.374,118.243c-3.665,0-6.646-2.983-6.646-6.647
		s2.981-6.647,6.646-6.647c3.666,0,6.648,2.983,6.648,6.647S107.041,118.243,103.374,118.243z"/>
	<path style="fill:#231F20;" d="M103.374,274.606c12.581,0,22.817-10.236,22.817-22.816c0-12.58-10.236-22.816-22.817-22.816
		c-12.58,0-22.815,10.236-22.815,22.816S90.794,274.606,103.374,274.606z M103.374,245.142c3.666,0,6.648,2.983,6.648,6.647
		c0,3.665-2.983,6.647-6.648,6.647c-3.665,0-6.646-2.983-6.646-6.647C96.728,248.125,99.71,245.142,103.374,245.142z"/>
	<path style="fill:#231F20;" d="M103.374,369.167c-12.58,0-22.815,10.236-22.815,22.816s10.235,22.816,22.815,22.816
		c12.581,0,22.817-10.236,22.817-22.816S115.956,369.167,103.374,369.167z M103.374,398.63c-3.665,0-6.646-2.983-6.646-6.647
		s2.981-6.647,6.646-6.647c3.666,0,6.648,2.983,6.648,6.647S107.041,398.63,103.374,398.63z"/>
	<path style="fill:#231F20;" d="M456.903,75.473H292.832c-4.466,0-8.084,3.62-8.084,8.084s3.618,8.084,8.084,8.084h164.072
		c4.466,0,8.084-3.62,8.084-8.084S461.368,75.473,456.903,75.473z"/>
	<path style="fill:#231F20;" d="M456.903,103.511H292.832c-4.466,0-8.084,3.62-8.084,8.084s3.618,8.084,8.084,8.084h164.072
		c4.466,0,8.084-3.62,8.084-8.084S461.368,103.511,456.903,103.511z"/>
	<path style="fill:#231F20;" d="M456.903,131.551H292.832c-4.466,0-8.084,3.62-8.084,8.084s3.618,8.084,8.084,8.084h164.072
		c4.466,0,8.084-3.62,8.084-8.084S461.368,131.551,456.903,131.551z"/>
	<path style="fill:#231F20;" d="M292.832,231.836h164.072c4.466,0,8.084-3.62,8.084-8.084c0-4.465-3.618-8.084-8.084-8.084H292.832
		c-4.466,0-8.084,3.62-8.084,8.084C284.747,228.216,288.366,231.836,292.832,231.836z"/>
	<path style="fill:#231F20;" d="M292.832,259.874h164.072c4.466,0,8.084-3.62,8.084-8.084c0-4.465-3.618-8.084-8.084-8.084H292.832
		c-4.466,0-8.084,3.62-8.084,8.084C284.747,256.254,288.366,259.874,292.832,259.874z"/>
	<path style="fill:#231F20;" d="M292.832,287.912h164.072c4.466,0,8.084-3.62,8.084-8.084s-3.618-8.084-8.084-8.084H292.832
		c-4.466,0-8.084,3.62-8.084,8.084S288.366,287.912,292.832,287.912z"/>
	<path style="fill:#231F20;" d="M292.832,372.029h164.072c4.466,0,8.084-3.62,8.084-8.084c0-4.465-3.618-8.084-8.084-8.084H292.832
		c-4.466,0-8.084,3.62-8.084,8.084C284.747,368.409,288.366,372.029,292.832,372.029z"/>
	<path style="fill:#231F20;" d="M292.832,400.067h164.072c4.466,0,8.084-3.62,8.084-8.084s-3.618-8.084-8.084-8.084H292.832
		c-4.466,0-8.084,3.62-8.084,8.084S288.366,400.067,292.832,400.067z"/>
	<path style="fill:#231F20;" d="M292.832,428.106h164.072c4.466,0,8.084-3.62,8.084-8.084s-3.618-8.084-8.084-8.084H292.832
		c-4.466,0-8.084,3.62-8.084,8.084S288.366,428.106,292.832,428.106z"/>
	<path style="fill:#231F20;" d="M158.833,103.511h-10.011c-3.835-21.615-22.747-38.085-45.447-38.085s-41.612,16.47-45.447,38.085
		H47.916c-4.466,0-8.084,3.62-8.084,8.084s3.618,8.084,8.084,8.084h10.011c3.835,21.615,22.748,38.085,45.447,38.085
		c22.7,0,41.612-16.471,45.447-38.085h10.011c4.466,0,8.084-3.62,8.084-8.084S163.299,103.511,158.833,103.511z M103.374,141.598
		c-16.544,0-30.002-13.459-30.002-30.001s13.459-30.001,30.002-30.001s30.002,13.459,30.002,30.001S119.918,141.598,103.374,141.598
		z"/>
	<path style="fill:#231F20;" d="M148.822,383.899c-3.835-21.615-22.747-38.085-45.447-38.085s-41.612,16.47-45.447,38.085H47.916
		c-4.466,0-8.084,3.62-8.084,8.084s3.618,8.084,8.084,8.084h10.011c3.835,21.615,22.748,38.085,45.447,38.085
		c22.7,0,41.612-16.471,45.447-38.085h10.011c4.466,0,8.084-3.62,8.084-8.084s-3.618-8.084-8.084-8.084H148.822z M103.374,421.985
		c-16.544,0-30.002-13.459-30.002-30.001c0-16.542,13.459-30.001,30.002-30.001s30.002,13.459,30.002,30.001
		C133.377,408.526,119.918,421.985,103.374,421.985z"/>
	<path style="fill:#231F20;" d="M47.916,259.874h10.011c3.835,21.615,22.748,38.085,45.447,38.085
		c22.7,0,41.612-16.471,45.447-38.085h10.011c4.466,0,8.084-3.62,8.084-8.084c0-4.465-3.618-8.084-8.084-8.084h-10.011
		c-3.835-21.615-22.747-38.085-45.447-38.085s-41.612,16.47-45.447,38.085H47.916c-4.466,0-8.084,3.62-8.084,8.084
		C39.831,256.254,43.451,259.874,47.916,259.874z M103.374,221.788c16.544,0,30.002,13.459,30.002,30.001
		s-13.459,30.001-30.002,30.001s-30.002-13.458-30.002-30S86.832,221.788,103.374,221.788z"/>
</g>
<g style="opacity:0.2;">
	<path style="fill:#231F20;" d="M33.634,297.938v-92.297c0-13.226,10.724-23.949,23.95-23.949H32.032
		c-13.226,0-23.948,10.722-23.948,23.949v92.297c0,13.227,10.722,23.949,23.948,23.949h25.551
		C44.358,321.886,33.634,311.164,33.634,297.938z"/>
</g>
<g style="opacity:0.2;">
	<path style="fill:#231F20;" d="M33.634,157.745V65.448c0-13.227,10.724-23.949,23.95-23.949H32.032
		c-13.226,0-23.948,10.722-23.948,23.949v92.297c0,13.226,10.722,23.949,23.948,23.949h25.551
		C44.358,181.693,33.634,170.97,33.634,157.745z"/>
</g>
<g style="opacity:0.2;">
	<path style="fill:#231F20;" d="M33.634,438.132v-92.297c0-13.227,10.724-23.949,23.95-23.949H32.032
		c-13.226,0-23.948,10.722-23.948,23.949v92.297c0,13.227,10.722,23.949,23.948,23.949h25.551
		C44.358,462.081,33.634,451.358,33.634,438.132z"/>
</g>
</svg>